<svg xmlns="http://www.w3.org/2000/svg" xmlns:xlink="http://www.w3.org/1999/xlink" version="1.1" width="256" height="256" viewBox="0 0 256 256" xml:space="preserve">

<defs>
</defs>
<g style="stroke: none; stroke-width: 0; stroke-dasharray: none; stroke-linecap: butt; stroke-linejoin: miter; stroke-miterlimit: 10; fill: none; fill-rule: nonzero; opacity: 1;" transform="translate(1.4065934065934016 1.4065934065934016) scale(2.81 2.81)" >
	<path d="M 38.215 54.029 c -3.179 -13.225 3.808 -25.576 11.441 -32.786 c -8.114 15.051 -9.665 26.221 -4.514 43.273 l 2.987 -1.114 c -1.15 -3.214 -1.843 -6.356 -2.197 -9.444 c 10.735 -3.071 18.108 -9.403 19.865 -20.772 C 67.019 17.652 56.905 8.613 46.048 0 c 3.965 12.728 -15.106 23.43 -13.429 40.367 c 0.354 3.575 0.909 6.952 1.729 10.206" style="stroke: none; stroke-width: 1; stroke-dasharray: none; stroke-linecap: butt; stroke-linejoin: miter; stroke-miterlimit: 10; fill: rgb(127,178,65); fill-rule: nonzero; opacity: 1;" transform=" matrix(1 0 0 1 0 0) " stroke-linecap="round" />
	<path d="M 33.463 40.28 C 34.659 23.425 51.2 12.762 46.048 0 c 1.818 10.716 -12.745 16.148 -16.516 28.949 c -2.054 7.612 -1.501 14.937 4.817 21.624 C 33.528 47.319 33.29 43.869 33.463 40.28 z" style="stroke: none; stroke-width: 1; stroke-dasharray: none; stroke-linecap: butt; stroke-linejoin: miter; stroke-miterlimit: 10; fill: rgb(113,156,64); fill-rule: nonzero; opacity: 1;" transform=" matrix(1 0 0 1 0 0) " stroke-linecap="round" />
	<path d="M 66.225 69.926 c -1.229 0 -2.427 0.127 -3.593 0.343 c -2.52 -5.073 -6.357 -8.178 -11.298 -9.899 c 0.481 0.167 -0.477 -0.163 0 0 c -0.427 -0.033 -0.856 -0.056 -1.289 -0.056 c -7.743 0 -14.641 3.962 -17.867 11.791 c -1.168 -0.26 -4.438 0.157 -5.669 0.157 c -8.9 0 -14.131 7.972 -16.584 17.737 h 75.979 c 0.002 -0.127 0.019 -0.249 0.019 -0.377 C 85.922 78.745 77.103 69.926 66.225 69.926 z" style="stroke: none; stroke-width: 1; stroke-dasharray: none; stroke-linecap: butt; stroke-linejoin: miter; stroke-miterlimit: 10; fill: rgb(160,126,99); fill-rule: nonzero; opacity: 1;" transform=" matrix(1 0 0 1 0 0) " stroke-linecap="round" />
	<path d="M 28.796 73.123 c 1.23 0 2.429 0.154 3.597 0.414 c 3.226 -7.829 9.908 -13.223 17.65 -13.223 c 0.434 0 0.863 0.023 1.289 0.056 c -1.988 -0.678 -4.114 -1.056 -6.333 -1.056 c -7.734 0 -14.409 4.469 -17.631 10.955 c -1.167 -0.215 -2.364 -0.343 -3.593 -0.343 c -10.878 0 -19.697 8.819 -19.697 19.697 c 0 0.127 0.017 0.25 0.019 0.377 h 5.827 C 12.376 80.234 19.896 73.123 28.796 73.123 z" style="stroke: none; stroke-width: 1; stroke-dasharray: none; stroke-linecap: butt; stroke-linejoin: miter; stroke-miterlimit: 10; fill: rgb(145,107,77); fill-rule: nonzero; opacity: 1;" transform=" matrix(1 0 0 1 0 0) " stroke-linecap="round" />
</g>
</svg>