<?xml version="1.0" standalone="no"?>
<!DOCTYPE svg PUBLIC "-//W3C//DTD SVG 20010904//EN"
 "http://www.w3.org/TR/2001/REC-SVG-20010904/DTD/svg10.dtd">
<svg version="1.0" xmlns="http://www.w3.org/2000/svg"
 width="512.000000pt" height="512.000000pt" viewBox="0 0 512.000000 512.000000"
 preserveAspectRatio="xMidYMid meet">

<g transform="translate(0.000000,512.000000) scale(0.100000,-0.100000)"
fill="#000000" stroke="none">
<path d="M1781 4389 c-270 -53 -484 -253 -552 -517 -23 -92 -25 -240 -4 -330
60 -253 262 -457 517 -521 73 -19 73 -19 90 -65 l18 -46 -43 6 c-81 13 -193
54 -270 100 -75 45 -80 46 -135 40 -72 -9 -221 -58 -292 -98 -222 -123 -382
-335 -431 -571 -15 -75 -19 -136 -19 -332 0 -270 -2 -263 81 -343 71 -68 209
-130 407 -182 l42 -11 0 -205 c0 -232 0 -234 77 -305 206 -192 756 -303 1418
-286 455 12 797 73 1022 183 112 54 205 137 222 199 6 23 11 122 11 227 l0
188 28 5 c73 16 234 71 292 100 79 40 161 111 185 161 15 32 16 64 13 283 -5
232 -6 251 -32 335 -70 230 -208 412 -405 534 -85 52 -239 109 -322 119 -42 5
-54 2 -96 -25 -78 -50 -175 -91 -253 -108 -40 -8 -75 -13 -77 -10 -2 2 2 23
10 47 14 42 15 43 86 60 340 79 580 423 532 763 -24 171 -84 291 -206 412
-143 143 -330 213 -530 201 -249 -15 -470 -160 -582 -381 l-25 -50 -36 70
c-25 47 -64 97 -122 155 -73 73 -101 94 -180 132 -143 69 -303 93 -439 66z
m244 -204 c115 -30 205 -88 275 -177 41 -51 50 -78 27 -78 -7 0 -46 -16 -87
-36 -249 -119 -402 -327 -442 -598 l-12 -84 -36 13 c-155 55 -285 194 -326
349 -19 69 -18 190 2 257 38 130 140 256 252 313 106 54 237 69 347 41z m1298
0 c197 -51 344 -209 377 -407 36 -210 -79 -431 -271 -523 -92 -44 -109 -45
-109 -5 0 48 -30 180 -53 235 -82 196 -268 376 -444 432 -29 9 -53 20 -53 24
0 4 18 31 40 60 119 159 326 233 513 184z m-614 -441 c96 -27 172 -73 247
-148 215 -215 221 -552 16 -776 -165 -181 -423 -234 -647 -135 -71 32 -166
106 -213 167 -232 301 -114 733 240 875 108 44 239 50 357 17z m-1145 -966
c91 -39 230 -68 327 -68 73 0 76 -1 110 -36 204 -213 510 -290 794 -200 105
34 193 86 280 167 l70 66 110 6 c133 7 257 40 365 98 56 30 83 40 105 36 104
-17 260 -110 347 -207 71 -78 114 -152 151 -257 30 -86 31 -94 35 -304 l4
-216 -28 -20 c-73 -52 -288 -131 -320 -119 -6 2 -14 18 -17 34 -37 184 -219
442 -395 558 -124 83 -283 147 -397 160 -51 6 -57 4 -118 -34 -139 -88 -267
-125 -432 -125 -161 -1 -275 33 -428 125 -65 39 -70 41 -128 34 -69 -7 -213
-52 -291 -92 -157 -79 -317 -227 -398 -369 -25 -43 -61 -127 -80 -185 l-35
-107 -75 22 c-90 26 -182 67 -227 101 l-33 25 0 202 c0 238 11 305 71 427 78
159 241 290 420 340 l64 17 39 -25 c22 -13 71 -38 110 -54z m492 -528 c133
-84 312 -133 494 -133 179 -1 302 28 463 111 88 44 89 45 141 33 188 -42 397
-213 490 -401 74 -147 96 -267 96 -538 0 -150 0 -153 -25 -178 -40 -40 -180
-101 -308 -134 -421 -108 -1093 -119 -1564 -25 -203 41 -389 110 -437 164 -13
14 -16 56 -16 266 -1 227 0 257 20 325 79 274 286 462 597 539 1 1 23 -12 49
-29z"/>
</g>
</svg>
